<?xml version="1.0" encoding="utf-8"?>
<!-- Generator: Adobe Illustrator 25.0.1, SVG Export Plug-In . SVG Version: 6.00 Build 0)  -->
<svg version="1.0" id="Layer_1" xmlns="http://www.w3.org/2000/svg" xmlns:xlink="http://www.w3.org/1999/xlink" x="0px" y="0px"
	 viewBox="0 0 494 352.7" style="enable-background:new 0 0 494 352.7;" xml:space="preserve">
<style type="text/css">
	.st0{fill:url(#XMLID_5_);}
	.st1{fill:#FFFFFF;}
</style>
<g id="XMLID_3_">
	<g id="XMLID_1_">
		<g id="XMLID_6_">
			<path id="XMLID_66_" d="M305.7,194.6v-24c0-0.9,0.1-2.2,0.2-3.9c-0.2,0.5-0.4,0.9-0.5,1.3l-12.1,26.6h-1.8l-12.1-26.4
				c-0.2-0.4-0.3-0.8-0.5-1.2c0,0.1,0,0.2,0,0.2c0,0.9,0,2,0,3.1v24.3h-3.7v-35h4.3l11.8,26c0.2,0.5,0.5,1.1,0.7,1.7
				c0.2,0.4,0.3,0.8,0.4,1.2l0.4-1.1c0.2-0.5,0.4-1.1,0.7-1.7l11.8-26h4.1v35H305.7z"/>
			<path id="XMLID_69_" d="M323.8,194.5c-1.7,0-3.2-0.3-4.6-0.9c-1.4-0.6-2.6-1.5-3.5-2.6c-1-1.1-1.7-2.5-2.2-4.1
				c-0.5-1.6-0.8-3.5-0.8-5.6c0-1.9,0.3-3.6,0.9-5.2c0.6-1.6,1.4-3,2.4-4.2c1-1.2,2.2-2.1,3.6-2.8c1.4-0.7,2.9-1,4.6-1
				c1.6,0,3.1,0.3,4.3,0.9c1.3,0.6,2.3,1.4,3.2,2.4c0.8,1,1.5,2.3,1.9,3.8c0.4,1.5,0.7,3.2,0.7,5v1.8h-17.7c0,1.3,0.2,2.6,0.6,3.7
				c0.4,1.2,0.9,2.1,1.6,2.9c0.7,0.8,1.5,1.4,2.5,1.8c1,0.4,2.1,0.6,3.4,0.6c2.7,0,5.3-1,7.7-2.8l0.5-0.4v3.8l-0.1,0.1
				C330.1,193.7,327.2,194.5,323.8,194.5z M330.4,179c-0.1-2.3-0.7-4.2-1.7-5.4c-1.1-1.3-2.6-2-4.6-2c-1,0-1.9,0.2-2.8,0.5
				c-0.8,0.4-1.6,0.9-2.2,1.5c-0.6,0.7-1.2,1.5-1.6,2.5c-0.4,0.9-0.7,1.9-0.8,2.9H330.4z"/>
			<path id="XMLID_72_" d="M347.9,194.5c-1.7,0-3.2-0.3-4.6-0.9c-1.4-0.6-2.6-1.5-3.5-2.6c-1-1.1-1.7-2.5-2.2-4.1
				c-0.5-1.6-0.8-3.5-0.8-5.6c0-1.9,0.3-3.6,0.9-5.2c0.6-1.6,1.4-3,2.4-4.2c1-1.2,2.2-2.1,3.6-2.8c1.4-0.7,2.9-1,4.6-1
				c1.6,0,3.1,0.3,4.3,0.9c1.3,0.6,2.3,1.4,3.2,2.4c0.8,1,1.5,2.3,1.9,3.8c0.4,1.5,0.7,3.2,0.7,5v1.8h-17.7c0,1.3,0.2,2.6,0.6,3.7
				c0.4,1.2,0.9,2.1,1.6,2.9c0.7,0.8,1.5,1.4,2.5,1.8c1,0.4,2.1,0.6,3.4,0.6c2.7,0,5.3-1,7.7-2.8l0.5-0.4v3.8l-0.1,0.1
				C354.2,193.7,351.3,194.5,347.9,194.5z M354.5,179c-0.1-2.3-0.7-4.2-1.7-5.4c-1.1-1.3-2.7-2-4.6-2c-1,0-1.9,0.2-2.8,0.5
				c-0.8,0.4-1.6,0.9-2.2,1.5c-0.6,0.7-1.2,1.5-1.6,2.5c-0.4,0.9-0.7,1.9-0.8,2.9H354.5z"/>
			<path id="XMLID_73_" d="M370,194.5c-4.1,0-6.2-2.4-6.2-7.2v-15.2h-4.3v-3.3h4.3v-6.1l3.7-1.2v7.3h6.3v3.3h-6.3v14.7
				c0,1.6,0.3,2.7,0.8,3.4c0.5,0.7,1.3,1,2.5,1c0.9,0,1.8-0.3,2.6-0.8l0.5-0.3v3.5l-0.2,0.1C372.5,194.2,371.2,194.5,370,194.5z"/>
			<path id="XMLID_76_" d="M377.7,194v-25.2h3.7V194H377.7z M379.5,163.8c-0.7,0-1.3-0.2-1.7-0.7c-0.5-0.5-0.7-1.1-0.7-1.8
				c0-0.7,0.3-1.3,0.7-1.8c0.5-0.5,1.1-0.7,1.7-0.7c0.3,0,0.7,0.1,1,0.2c0.3,0.1,0.6,0.3,0.8,0.5c0.2,0.2,0.4,0.5,0.5,0.8
				c0.1,0.3,0.2,0.6,0.2,1c0,0.3-0.1,0.7-0.2,1c-0.1,0.3-0.3,0.6-0.6,0.8c-0.2,0.2-0.5,0.4-0.8,0.5
				C380.2,163.8,379.8,163.8,379.5,163.8z"/>
			<path id="XMLID_78_" d="M402.3,194v-14.4c0-5.4-1.9-8-5.7-8c-1,0-2,0.2-2.8,0.6c-0.9,0.4-1.6,1-2.3,1.7c-0.6,0.7-1.1,1.6-1.5,2.6
				c-0.4,1-0.5,2.1-0.5,3.2V194h-3.7v-25.2h3.7v3.7c1.9-2.8,4.6-4.2,8-4.2c2.8,0,4.9,0.9,6.4,2.7c1.4,1.8,2.2,4.4,2.2,7.7V194H402.3
				z"/>
			<path id="XMLID_82_" d="M418.9,203.5c-2.7,0-5.4-0.6-7.8-1.8l-0.2-0.1v-3.8l0.5,0.3c2.6,1.5,5.2,2.2,7.5,2.2
				c6.2,0,9.3-3.1,9.4-9.6c-2,2.8-4.8,4.3-8.5,4.3c-1.6,0-3-0.3-4.3-0.9c-1.3-0.6-2.4-1.4-3.4-2.5c-0.9-1.1-1.7-2.4-2.2-4
				c-0.5-1.5-0.8-3.3-0.8-5.3c0-2.1,0.3-4,0.8-5.6c0.5-1.7,1.3-3.2,2.3-4.4c1-1.2,2.2-2.2,3.7-2.9c1.4-0.7,3.1-1,4.8-1
				c3.3,0,5.8,1.2,7.5,3.7v-3.1h3.7v20.7c0,4.7-1.1,8.2-3.2,10.4C426.7,202.3,423.3,203.5,418.9,203.5z M421.1,171.6
				c-1.2,0-2.4,0.2-3.4,0.7c-1,0.5-1.9,1.2-2.6,2c-0.7,0.9-1.3,2-1.6,3.2c-0.4,1.3-0.6,2.7-0.6,4.3c0,1.5,0.2,2.8,0.5,4
				c0.4,1.2,0.9,2.2,1.5,3c0.6,0.8,1.4,1.5,2.3,1.9c0.9,0.4,1.9,0.7,3.1,0.7c1.2,0,2.3-0.2,3.2-0.6c1-0.4,1.8-1,2.5-1.8
				c0.7-0.8,1.2-1.6,1.6-2.7c0.4-1,0.6-2.1,0.6-3.3v-4.3c0-1-0.2-1.9-0.5-2.8c-0.4-0.9-0.9-1.7-1.5-2.3c-0.6-0.7-1.4-1.2-2.3-1.6
				C423.2,171.8,422.2,171.6,421.1,171.6z"/>
		</g>
		<g id="XMLID_35_">
			<path id="XMLID_37_" d="M196.1,191.7c-3.4,1.9-8.1,2.9-13.1,2.9c-5.5,0-9.9-1.5-13.1-4.6c-3.2-3.1-4.8-7.3-4.8-12.7
				c0-5.4,1.7-9.8,5.2-13.2c3.5-3.4,8.1-5.1,13.9-5.1c3.6,0,7.5,0.5,10.3,1.5v7.3c-2.7-1.5-6.5-2.3-10.4-2.3c-3.2,0-5.8,1-7.9,3.1
				c-2,2.1-3,4.9-3,8.4c0,3.5,0.9,6.3,2.7,8.2c1.8,1.9,4.3,2.9,7.4,2.9c1.9,0,3.9-0.3,5-0.8v-6.1h-7.5V175h15.2V191.7z"/>
			<path id="XMLID_39_" d="M213.2,194.6c-4.2,0-7.5-1.2-9.9-3.5c-2.4-2.3-3.6-5.5-3.6-9.5c0-4.1,1.2-7.4,3.7-9.7
				c2.5-2.3,5.9-3.5,10.1-3.5c4.2,0,7.5,1.2,9.9,3.5c2.4,2.3,3.6,5.4,3.6,9.3c0,4.1-1.2,7.4-3.7,9.8
				C220.9,193.4,217.5,194.6,213.2,194.6z M213.4,174.3c-1.8,0-3.3,0.6-4.3,1.9c-1,1.3-1.5,3-1.5,5.3c0,4.8,2,7.2,5.9,7.2
				c3.7,0,5.6-2.5,5.6-7.4C219.1,176.7,217.2,174.3,213.4,174.3z"/>
			<path id="XMLID_44_" d="M257.2,194.6c-4.2,0-7.5-1.2-9.9-3.5c-2.4-2.3-3.6-5.5-3.6-9.5c0-4.1,1.2-7.4,3.7-9.7
				c2.5-2.3,5.9-3.5,10.1-3.5c4.2,0,7.5,1.2,9.9,3.5c2.4,2.3,3.6,5.4,3.6,9.3c0,4.1-1.2,7.4-3.7,9.8
				C264.8,193.4,261.4,194.6,257.2,194.6z M257.4,174.3c-1.8,0-3.3,0.6-4.3,1.9c-1,1.3-1.5,3-1.5,5.3c0,4.8,2,7.2,5.9,7.2
				c3.7,0,5.6-2.5,5.6-7.4C263,176.7,261.1,174.3,257.4,174.3z"/>
			<path id="XMLID_42_" d="M249.4,166.5h-9.8V194h-8.4v-27.5h-9.8v-6.9h28V166.5z"/>
		</g>
	</g>
	<g id="XMLID_2_">
		<linearGradient id="XMLID_5_" gradientUnits="userSpaceOnUse" x1="102.1909" y1="218.4748" x2="102.1909" y2="134.2198">
			<stop  offset="0" style="stop-color:#F15A24"/>
			<stop  offset="1" style="stop-color:#DFBE3B"/>
		</linearGradient>
		<path id="XMLID_54_" class="st0" d="M83.4,208.4c-7.9-0.7-14.2-4-18.3-10.9c-4.1-6.9-4-14-0.6-21c-7.4-14.4,2.5-31.2,18.9-32.2
			c4.5-6.5,10.8-10.1,18.8-10.1c8,0,14.2,3.6,18.7,10c15.7,0.6,26.4,16.9,18.9,32.1c3.4,7.1,3.5,14.2-0.6,21.2
			c-4.1,6.9-10.4,10.2-18.2,10.9C112,221.8,92.5,221.9,83.4,208.4z"/>
		<path id="XMLID_51_" class="st1" d="M88.1,200.4c-7.1,1.2-12.8-0.8-16.5-7c-2.6-4.3-2.9-11.3,2.3-17c-4.7-5.6-5.8-11.6-1.8-18
			c3.2-5,7.8-6.7,15.9-6.2c2.4-6.5,7-10.5,14.1-10.5c7.1,0,11.7,3.8,14.2,10.5c7.6-1.2,13.7,1.1,17,8.2c2.7,5.8,1.3,11.1-2.9,15.9
			c4.8,5.6,5.8,11.7,1.7,18.1c-3.1,4.9-8,6.7-15.9,6c-2.4,6.6-7,10.5-14.1,10.5C95.1,210.9,90.5,207,88.1,200.4z M102.2,203.6
			c3.1,0,5.7-1.8,6.7-4.7c1-2.8,0-5.8-2.4-7.7c-0.5-0.4-1-0.8-1.4-1.2c-2.4-2.7-1.2-6.6,2.3-7.5c2.9-0.7,5.4,1.3,5.8,4.6
			c0.5,4.3,4.3,7,8.4,6.2c4-0.8,6.4-4.8,5.3-8.7c-1.1-3.9-5.4-5.9-9.4-4.4c-0.5,0.2-1.1,0.4-1.6,0.6c-1.9,0.5-4-0.3-5.1-1.9
			c-1.1-1.5-1.1-3.5,0-5c1.2-1.6,3.1-2.4,5.1-1.9c0.6,0.2,1.3,0.5,1.9,0.7c3.2,1.1,6.7-0.1,8.4-3c1.7-2.8,1.1-6.3-1.2-8.5
			c-2.5-2.3-6.3-2.5-9-0.4c-1.8,1.3-2.6,3.1-2.8,5.3c-0.3,2.4-2,4-4.3,4.3c-1.9,0.2-3.9-1-4.7-2.7c-0.9-2.1-0.2-4.2,1.7-5.7
			c0.4-0.3,0.8-0.6,1.1-0.9c2.9-2.7,2.9-7.1,0.1-9.8c-2.9-2.8-7.6-2.6-10.2,0.4c-2.6,3-2.1,7.4,1,9.9c0.6,0.4,1.1,0.9,1.6,1.4
			c1.3,1.5,1.4,3.7,0.4,5.4c-1.1,1.7-3.1,2.5-5,2c-2.6-0.7-3.4-2.6-3.8-5c-0.6-4.1-4.5-6.7-8.5-5.7c-3.9,0.9-6.2,5-5,8.7
			c1.2,3.9,5.5,5.8,9.4,4.3c0.6-0.2,1.3-0.5,1.9-0.6c2.7-0.5,5.1,1.2,5.5,3.9c0.4,2.4-1.4,4.8-3.9,5c-1.2,0.1-2.6-0.3-3.8-0.7
			c-3.9-1.3-8,0.7-9.2,4.5c-1.2,3.8,1.1,7.8,5.1,8.7c4,0.9,7.8-1.6,8.5-5.6c0.1-0.5,0.1-1.1,0.3-1.6c0.5-2.3,2.7-3.9,4.9-3.7
			c2.3,0.2,4,1.9,4.2,4.2c0.2,2-0.9,3.5-2.5,4.6c-2.6,1.9-3.5,4.8-2.6,7.7C96.5,201.7,99.1,203.6,102.2,203.6z"/>
	</g>
</g>
</svg>
